# Heavy Pistol - Base Mesh
o Heavy_Pistol

# Slide (top)
v 0.0 0.4 0.0
v 1.6 0.4 0.0
v 1.6 0.7 0.0
v 0.0 0.7 0.0
v 0.0 0.4 0.3
v 1.6 0.4 0.3
v 1.6 0.7 0.3
v 0.0 0.7 0.3

# Barrel front
v 1.6 0.45 0.1
v 2.0 0.45 0.1
v 1.6 0.65 0.1
v 2.0 0.65 0.1
v 1.6 0.45 0.2
v 2.0 0.45 0.2
v 1.6 0.65 0.2
v 2.0 0.65 0.2

# Frame (lower body)
v 0.0 0.0 0.0
v 1.4 0.0 0.0
v 1.4 0.4 0.0
v 0.0 0.4 0.0
v 0.0 0.0 0.3
v 1.4 0.0 0.3
v 1.4 0.4 0.3
v 0.0 0.4 0.3

# Grip
v 0.2 -0.6 0.05
v 0.7 -0.6 0.05
v 0.2 0.0 0.05
v 0.7 0.0 0.05
v 0.2 -0.6 0.25
v 0.7 -0.6 0.25
v 0.2 0.0 0.25
v 0.7 0.0 0.25

# Trigger guard
v 0.8 0.0 0.05
v 1.2 0.0 0.05
v 0.8 0.2 0.05
v 1.2 0.2 0.05
v 0.8 0.0 0.25
v 1.2 0.0 0.25
v 0.8 0.2 0.25
v 1.2 0.2 0.25

# Faces (slide)
f 1 2 3 4
f 5 6 7 8
f 1 5 8 4
f 2 6 7 3
f 1 2 6 5
f 4 3 7 8

# Faces (barrel)
f 9 10 12 11
f 13 14 16 15
f 9 13 15 11
f 10 14 16 12
f 9 10 14 13
f 11 12 16 15

# Faces (frame)
f 17 18 19 20
f 21 22 23 24
f 17 21 24 20
f 18 22 23 19
f 17 18 22 21
f 20 19 23 24

# Faces (grip)
f 25 26 28 27
f 29 30 32 31
f 25 29 31 27
f 26 30 32 28
f 25 26 30 29
f 27 28 32 31

# Faces (trigger guard)
f 33 34 36 35
f 37 38 40 39
f 33 37 39 35
f 34 38 40 36
f 33 34 38 37
f 35 36 40 39
